<svg width="134" height="43" viewBox="0 0 134 43" fill="none" xmlns="http://www.w3.org/2000/svg">
<path fill-rule="evenodd" clip-rule="evenodd" d="M3.07776 7.40216C3.07776 8.25175 2.38872 8.94104 1.53888 8.94104C1.10882 8.94104 0.720097 8.76471 0.440825 8.48018C0.279022 8.31587 0.154038 8.11549 0.0791481 7.89108C0.027802 7.73679 0 7.57248 0 7.40216C0 6.55257 0.689039 5.86328 1.53888 5.86328C2.02604 5.86328 2.46035 6.0897 2.74238 6.44236C2.95227 6.70586 3.07776 7.03948 3.07776 7.40216ZM3.07776 13.5577C3.07776 14.4073 2.38872 15.0966 1.53888 15.0966C1.24758 15.0966 0.974824 15.0154 0.742639 14.8741C0.667499 14.8291 0.596616 14.777 0.530493 14.7199C0.205384 14.4383 0 14.0215 0 13.5577C0 12.7081 0.689039 12.0188 1.53888 12.0188C2.38872 12.0188 3.07776 12.7081 3.07776 13.5577ZM1.53888 21.2521C2.38872 21.2521 3.07776 20.5628 3.07776 19.7132C3.07776 19.1451 2.77018 18.6492 2.31258 18.3827C2.08515 18.2505 1.82091 18.1743 1.53888 18.1743C0.689039 18.1743 0 18.8636 0 19.7132C0 20.5628 0.689039 21.2521 1.53888 21.2521ZM13.8499 15.0966C14.6998 15.0966 15.3888 14.4073 15.3888 13.5577C15.3888 12.7081 14.6998 12.0188 13.8499 12.0188C13.0001 12.0188 12.311 12.7081 12.311 13.5577C12.311 14.4073 13.0001 15.0966 13.8499 15.0966ZM13.8499 21.2521C14.6998 21.2521 15.3888 20.5628 15.3888 19.7132C15.3888 19.2413 15.1764 18.8195 14.8423 18.537C14.5745 18.3106 14.2281 18.1743 13.8499 18.1743C13.0001 18.1743 12.311 18.8636 12.311 19.7132C12.311 20.5628 13.0001 21.2521 13.8499 21.2521ZM8.20736 15.0094C8.80497 14.798 9.23327 14.2279 9.23327 13.5577C9.23327 12.7081 8.54424 12.0188 7.6944 12.0188C6.84456 12.0188 6.15552 12.7081 6.15552 13.5577C6.15552 13.9214 6.282 14.256 6.49315 14.5195C6.67073 14.7409 6.90843 14.9132 7.18144 15.0094V18.2615C6.58382 18.4729 6.15552 19.0429 6.15552 19.7132C6.15552 20.5628 6.84456 21.2521 7.6944 21.2521C8.18832 21.2521 8.62789 21.0196 8.90942 20.658C9.1123 20.3965 9.23327 20.0689 9.23327 19.7132C9.23327 19.0429 8.80497 18.4729 8.20736 18.2615V15.0094ZM9.14561 7.91512C8.93422 8.51224 8.3644 8.94104 7.6944 8.94104C7.36653 8.94104 7.06271 8.83885 6.813 8.66452C6.4155 8.386 6.15552 7.92414 6.15552 7.40216C6.15552 6.55257 6.84456 5.86328 7.6944 5.86328C8.3644 5.86328 8.93422 6.29208 9.14561 6.8892H12.3987C12.6101 6.29208 13.1799 5.86328 13.8499 5.86328C14.6998 5.86328 15.3888 6.55257 15.3888 7.40216C15.3888 8.25175 14.6998 8.94104 13.8499 8.94104C13.1799 8.94104 12.6101 8.51224 12.3987 7.91512L9.14561 7.91512Z" fill="url(#paint0_linear_23967_39433)"/>
<path fill-rule="evenodd" clip-rule="evenodd" d="M107.072 21.8971C105.175 21.8971 103.35 21.193 101.943 19.9293V28.337C101.943 29.0482 101.369 29.6249 100.661 29.6249C99.953 29.6249 99.3789 29.0482 99.3789 28.337V13.5253C99.3789 13.372 99.4056 13.225 99.4544 13.0887C99.6864 11.4384 100.445 9.89702 101.632 8.70479C103.075 7.25551 105.032 6.44141 107.072 6.44141C109.113 6.44141 111.07 7.25567 112.513 8.70479C113.955 10.1541 114.766 12.1197 114.766 14.1693C114.766 16.2188 113.955 18.1844 112.513 19.6337C111.07 21.083 109.113 21.8971 107.072 21.8971ZM107.072 19.1719C108.393 19.1719 109.66 18.6449 110.594 17.7068C111.528 16.7685 112.053 15.4961 112.053 14.1693C112.053 12.8424 111.528 11.57 110.594 10.6317C109.66 9.69357 108.393 9.16656 107.072 9.16656C105.752 9.16656 104.485 9.69357 103.551 10.6317C102.617 11.57 102.092 12.8424 102.092 14.1693C102.092 15.4961 102.617 16.7685 103.551 17.7068C104.485 18.6449 105.752 19.1719 107.072 19.1719Z" fill="#042550"/>
<path d="M97.2996 6.09892C96.6994 5.72136 95.9082 5.904 95.5323 6.50686L89.4611 16.2443L81.1186 6.48022C80.6574 5.94042 79.8479 5.87838 79.3105 6.34163C78.7731 6.80489 78.7113 7.61803 79.1725 8.15782L87.9991 18.4886C88.0112 18.5027 88.0235 18.5165 88.036 18.5299L82.5418 27.3418C82.1659 27.9446 82.3478 28.7394 82.9479 29.117C83.5481 29.4945 84.3394 29.3119 84.7153 28.709L97.7058 7.87412C98.0817 7.27126 97.8998 6.47647 97.2996 6.09892Z" fill="#042550"/>
<path d="M61.5508 20.6076C61.5508 21.3189 62.1249 21.8956 62.833 21.8956C63.5412 21.8956 64.1153 21.3189 64.1153 20.6076V14.2578C64.106 12.9227 64.7957 11.6372 65.7291 10.6865C66.6624 9.73574 67.9336 9.19647 69.2629 9.18719C70.5921 9.17776 71.8706 9.69927 72.8171 10.6368C73.7636 11.5743 74.3641 12.8324 74.3734 14.1677V14.186V20.6076C74.3734 21.3189 74.9475 21.8956 75.6556 21.8956C76.3638 21.8956 76.9379 21.3189 76.9379 20.6076V14.1677C76.9237 12.1182 76.1528 10.1582 74.6999 8.71914C73.2471 7.27992 71.2846 6.47949 69.2441 6.4938C67.3408 6.50716 65.515 7.2285 64.1153 8.51003V1.28797C64.1153 0.576695 63.5412 0 62.833 0C62.1249 0 61.5508 0.576695 61.5508 1.28797V20.6076Z" fill="#042550"/>
<path d="M39.7532 9.01735C40.4613 9.01735 41.0354 8.44066 41.0354 7.72938C41.0354 7.0181 40.4613 6.44141 39.7532 6.44141H38.4709C38.4635 6.44141 38.4561 6.44156 38.4487 6.44156C37.4458 6.44455 36.4533 6.64422 35.5267 7.02974C34.5933 7.41824 33.7452 7.98738 33.0307 8.70495C32.3163 9.42252 31.7496 10.2745 31.363 11.212C30.9766 12.1491 30.7776 13.1531 30.7773 14.1672V21.2531C30.7773 21.9644 31.3514 22.5411 32.0596 22.5411C32.7678 22.5411 33.3419 21.9644 33.3419 21.2531V14.1693L33.3457 14.1694C33.3457 13.4933 33.4782 12.8239 33.7358 12.1994C33.9934 11.5748 34.3709 11.0072 34.8468 10.5292C35.3227 10.0511 35.8877 9.67188 36.5096 9.41324C37.1314 9.15445 37.7978 9.02129 38.4709 9.02129V9.01735H39.7532Z" fill="#F43249"/>
<path d="M57.7074 14.1693C57.7074 12.3317 57.0555 10.5542 55.8687 9.1559C54.6819 7.7574 53.0378 6.82962 51.2314 6.53876C49.4251 6.24805 47.5747 6.61328 46.0122 7.56904C44.4497 8.52481 43.2774 10.0087 42.7057 11.7542C42.134 13.4997 42.2002 15.3926 42.8924 17.0936C43.5847 18.7945 44.8578 20.192 46.4832 21.0354C48.1086 21.8786 49.9799 22.1125 51.7615 21.6951C53.0331 21.3972 54.1995 20.7813 55.158 19.9156C55.2361 19.8619 55.3095 19.7987 55.3766 19.7262L56.1928 18.844C56.683 18.314 56.6528 17.4853 56.1252 16.9929C55.5976 16.5004 54.7725 16.5308 54.2823 17.0608L53.4661 17.943C53.4191 17.9937 53.3768 18.0474 53.3394 18.1032C52.7208 18.6307 51.9821 19.0074 51.181 19.1951C49.9912 19.4738 48.7415 19.3176 47.656 18.7544C46.5706 18.1914 45.7204 17.2581 45.2581 16.1222C44.7958 14.9864 44.7516 13.7221 45.1334 12.5565C45.5152 11.3908 46.2981 10.3999 47.3415 9.76168C48.3849 9.12335 49.6207 8.87934 50.827 9.07367C52.0333 9.26784 53.1312 9.88746 53.9238 10.8214C54.4337 11.4221 54.7957 12.1277 54.9891 12.8813H49.3727C48.6646 12.8813 48.0905 13.458 48.0905 14.1693C48.0905 14.8806 48.6646 15.4573 49.3727 15.4573L56.4252 15.4573C57.1334 15.4573 57.7074 14.8806 57.7074 14.1693Z" fill="#F43249"/>
<path d="M132.715 14.1693C132.715 12.3317 132.063 10.5542 130.877 9.1559C129.69 7.7574 128.046 6.82962 126.239 6.53876C124.433 6.24805 122.582 6.61328 121.02 7.56904C119.458 8.52481 118.285 10.0087 117.713 11.7542C117.142 13.4997 117.208 15.3926 117.9 17.0936C118.593 18.7945 119.866 20.192 121.491 21.0354C123.116 21.8786 124.988 22.1125 126.769 21.6951C128.041 21.3972 129.207 20.7813 130.166 19.9156C130.244 19.8619 130.317 19.7987 130.384 19.7262L131.201 18.844C131.691 18.314 131.661 17.4853 131.133 16.9929C130.605 16.5004 129.78 16.5308 129.29 17.0608L128.474 17.943C128.427 17.9937 128.385 18.0474 128.347 18.1032C127.729 18.6307 126.99 19.0074 126.189 19.1951C124.999 19.4738 123.749 19.3176 122.664 18.7544C121.578 18.1914 120.728 17.2581 120.266 16.1222C119.804 14.9864 119.759 13.7221 120.141 12.5565C120.523 11.3908 121.306 10.3999 122.349 9.76168C123.393 9.12335 124.628 8.87934 125.835 9.07367C127.041 9.26784 128.139 9.88746 128.932 10.8214C129.441 11.4221 129.804 12.1277 129.997 12.8813H124.381C123.672 12.8813 123.098 13.458 123.098 14.1693C123.098 14.8806 123.672 15.4573 124.381 15.4573L131.433 15.4573C132.141 15.4573 132.715 14.8806 132.715 14.1693Z" fill="#042550"/>
<path d="M131.01 29.5769C131.589 29.7423 131.927 30.3461 131.728 30.9134C130.711 33.8004 128.95 36.3731 126.617 38.3644C124.008 40.5912 120.8 41.9909 117.399 42.3865C113.998 42.782 110.557 42.1557 107.51 40.5867C104.786 39.1837 102.487 37.0832 100.84 34.506C100.516 33.9993 100.708 33.3345 101.233 33.041C101.76 32.746 102.424 32.9384 102.754 33.4447C104.188 35.6415 106.168 37.4332 108.506 38.6372C111.168 40.0085 114.176 40.5559 117.148 40.2102C120.121 39.8644 122.925 38.6411 125.205 36.6949C127.208 34.9854 128.728 32.7855 129.623 30.3167C129.829 29.7493 130.43 29.4109 131.01 29.5769Z" fill="#042550"/>
<ellipse cx="132.396" cy="25.4381" rx="1.60282" ry="1.60997" fill="#F43249"/>
<defs>
<linearGradient id="paint0_linear_23967_39433" x1="-3.07776" y1="15.0966" x2="18.4665" y2="15.0966" gradientUnits="userSpaceOnUse">
<stop offset="0.075538" stop-color="#F43249"/>
<stop offset="0.324566" stop-color="#F43249"/>
<stop offset="0.455633" stop-color="#042550"/>
<stop offset="0.576871" stop-color="#042550"/>
<stop offset="0.60457" stop-color="#042550"/>
<stop offset="0.832452" stop-color="#F43249"/>
<stop offset="0.909956" stop-color="#F43249"/>
</linearGradient>
</defs>
</svg>
